<svg width="316" height="24" viewBox="0 0 316 24" fill="none" xmlns="http://www.w3.org/2000/svg">
<path d="M10.32 5.8C10.48 5.8 10.56 5.88 10.56 6.04V16.76C10.56 16.92 10.48 17 10.32 17H9.28C9.12 17 9.04 16.92 9.04 16.76V7.24H3.12V16.76C3.12 16.92 3.04 17 2.88 17H1.84C1.68 17 1.6 16.92 1.6 16.76V6.04C1.6 5.88 1.68 5.8 1.84 5.8H10.32ZM18.8363 11.16C18.8363 10.7973 18.7243 10.5093 18.5003 10.296C18.2869 10.072 17.9989 9.96 17.6363 9.96H15.6363C15.2736 9.96 14.9803 10.072 14.7563 10.296C14.5429 10.5093 14.4363 10.7973 14.4363 11.16V14.68C14.4363 15.0427 14.5429 15.336 14.7563 15.56C14.9803 15.7733 15.2736 15.88 15.6363 15.88H17.6363C17.9989 15.88 18.2869 15.7733 18.5003 15.56C18.7243 15.336 18.8363 15.0427 18.8363 14.68V11.16ZM20.1963 14.68C20.1963 15.48 19.9776 16.0933 19.5403 16.52C19.1136 16.9467 18.4789 17.16 17.6363 17.16H15.6363C14.7936 17.16 14.1536 16.9467 13.7163 16.52C13.2896 16.0933 13.0763 15.48 13.0763 14.68V11.16C13.0763 10.36 13.2896 9.74667 13.7163 9.32C14.1536 8.89333 14.7936 8.68 15.6363 8.68H17.6363C18.4789 8.68 19.1136 8.89333 19.5403 9.32C19.9776 9.74667 20.1963 10.36 20.1963 11.16V14.68ZM23.9194 14.84C23.7594 15.64 23.4874 16.2267 23.1034 16.6C22.7194 16.9733 22.1647 17.16 21.4394 17.16H21.1994C21.0394 17.16 20.9594 17.08 20.9594 16.92V16.12C20.9594 15.96 21.0394 15.88 21.1994 15.88H21.4394C21.7167 15.88 21.9514 15.7893 22.1434 15.608C22.346 15.4267 22.4847 15.1707 22.5594 14.84L23.7594 9.08C23.7914 8.92 23.9247 8.84 24.1594 8.84H28.6394C28.7994 8.84 28.8794 8.92 28.8794 9.08V16.76C28.8794 16.92 28.7994 17 28.6394 17H27.7594C27.5994 17 27.5194 16.92 27.5194 16.76V10.12H24.8794L23.9194 14.84ZM36.3145 9.08C36.3465 8.99467 36.3892 8.936 36.4425 8.904C36.5065 8.86133 36.5972 8.84 36.7145 8.84H37.6745C37.8452 8.84 37.8985 8.92 37.8345 9.08L34.7145 17C34.4905 17.5653 34.2718 18.04 34.0585 18.424C33.8452 18.808 33.6158 19.1173 33.3705 19.352C33.1252 19.5973 32.8585 19.7733 32.5705 19.88C32.2825 19.9867 31.9572 20.04 31.5945 20.04H31.2745C31.1145 20.04 31.0345 19.96 31.0345 19.8V19C31.0345 18.84 31.1145 18.76 31.2745 18.76H31.5945C31.9998 18.76 32.3305 18.6267 32.5865 18.36C32.8532 18.0933 33.1092 17.64 33.3545 17L30.2345 9.08C30.1705 8.92 30.2238 8.84 30.3945 8.84H31.3545C31.4718 8.84 31.5572 8.86133 31.6105 8.904C31.6745 8.936 31.7225 8.99467 31.7545 9.08L33.9945 15.08H34.0745L36.3145 9.08ZM40.3831 11.8C40.3831 12.1627 40.4898 12.456 40.7031 12.68C40.9271 12.8933 41.2205 13 41.5831 13H44.3031V9.08C44.3031 8.92 44.3831 8.84 44.5431 8.84H45.4231C45.5831 8.84 45.6631 8.92 45.6631 9.08V16.76C45.6631 16.92 45.5831 17 45.4231 17H44.5431C44.3831 17 44.3031 16.92 44.3031 16.76V14.28H41.5831C40.7405 14.28 40.1005 14.0667 39.6631 13.64C39.2365 13.2133 39.0231 12.6 39.0231 11.8V9.08C39.0231 8.92 39.1031 8.84 39.2631 8.84H40.1431C40.3031 8.84 40.3831 8.92 40.3831 9.08V11.8ZM54.75 8.84C54.91 8.84 54.99 8.92 54.99 9.08V16.76C54.99 16.92 54.91 17 54.75 17H53.87C53.71 17 53.63 16.92 53.63 16.76V10.92H53.55L49.71 16.76C49.6567 16.8453 49.6033 16.9093 49.55 16.952C49.4967 16.984 49.39 17 49.23 17H48.27C48.11 17 48.03 16.92 48.03 16.76V9.08C48.03 8.92 48.11 8.84 48.27 8.84H49.15C49.31 8.84 49.39 8.92 49.39 9.08V14.92H49.47L53.31 9.08C53.3633 8.99467 53.4167 8.936 53.47 8.904C53.5233 8.86133 53.63 8.84 53.79 8.84H54.75ZM59.1856 17C59.0256 17 58.9456 16.92 58.9456 16.76V10.12H56.4656C56.3056 10.12 56.2256 10.04 56.2256 9.88V9.08C56.2256 8.92 56.3056 8.84 56.4656 8.84H62.7856C62.9456 8.84 63.0256 8.92 63.0256 9.08V9.88C63.0256 10.04 62.9456 10.12 62.7856 10.12H60.3056V16.76C60.3056 16.92 60.2256 17 60.0656 17H59.1856ZM68.4306 15.72C68.7506 15.72 69.0013 15.6293 69.1826 15.448C69.3746 15.256 69.4706 15 69.4706 14.68V13.88C69.4706 13.56 69.3746 13.3093 69.1826 13.128C69.0013 12.936 68.7506 12.84 68.4306 12.84H65.6306V15.72H68.4306ZM64.5106 17C64.3506 17 64.2706 16.92 64.2706 16.76V9.08C64.2706 8.92 64.3506 8.84 64.5106 8.84H65.3906C65.5506 8.84 65.6306 8.92 65.6306 9.08V11.56H68.4306C70.0306 11.56 70.8306 12.3333 70.8306 13.88V14.68C70.8306 16.2267 70.0306 17 68.4306 17H64.5106ZM79.2306 13.32H77.2306V16.76C77.2306 16.92 77.1506 17 76.9906 17H76.1106C75.9506 17 75.8706 16.92 75.8706 16.76V9.08C75.8706 8.92 75.9506 8.84 76.1106 8.84H76.9906C77.1506 8.84 77.2306 8.92 77.2306 9.08V12.04H79.2306L80.8306 9.08C80.8733 8.99467 80.9213 8.936 80.9746 8.904C81.028 8.86133 81.1133 8.84 81.2306 8.84H82.1906C82.372 8.84 82.4253 8.92 82.3506 9.08L80.3506 12.68L82.5906 16.76C82.6653 16.92 82.612 17 82.4306 17H81.4706C81.3533 17 81.268 16.984 81.2146 16.952C81.1613 16.9093 81.1133 16.8453 81.0706 16.76L79.2306 13.32ZM89.4738 11.16C89.4738 10.7973 89.3618 10.5093 89.1378 10.296C88.9244 10.072 88.6364 9.96 88.2738 9.96H86.2738C85.9111 9.96 85.6178 10.072 85.3938 10.296C85.1804 10.5093 85.0738 10.7973 85.0738 11.16V14.68C85.0738 15.0427 85.1804 15.336 85.3938 15.56C85.6178 15.7733 85.9111 15.88 86.2738 15.88H88.2738C88.6364 15.88 88.9244 15.7733 89.1378 15.56C89.3618 15.336 89.4738 15.0427 89.4738 14.68V11.16ZM90.8338 14.68C90.8338 15.48 90.6151 16.0933 90.1778 16.52C89.7511 16.9467 89.1164 17.16 88.2738 17.16H86.2738C85.4311 17.16 84.7911 16.9467 84.3538 16.52C83.9271 16.0933 83.7138 15.48 83.7138 14.68V11.16C83.7138 10.36 83.9271 9.74667 84.3538 9.32C84.7911 8.89333 85.4311 8.68 86.2738 8.68H88.2738C89.1164 8.68 89.7511 8.89333 90.1778 9.32C90.6151 9.74667 90.8338 10.36 90.8338 11.16V14.68ZM97.6731 15.24L100.553 9.08C100.596 8.99467 100.644 8.936 100.697 8.904C100.761 8.86133 100.873 8.84 101.033 8.84H101.993C102.153 8.84 102.233 8.92 102.233 9.08V16.76C102.233 16.92 102.153 17 101.993 17H101.113C100.953 17 100.873 16.92 100.873 16.76V11.48H100.793L98.3131 16.76C98.2705 16.8453 98.2171 16.9093 98.1531 16.952C98.0998 16.984 97.9931 17 97.8331 17H97.4331C97.2731 17 97.1611 16.984 97.0971 16.952C97.0438 16.9093 96.9958 16.8453 96.9531 16.76L94.4731 11.48H94.3931V16.76C94.3931 16.92 94.3131 17 94.1531 17H93.2731C93.1131 17 93.0331 16.92 93.0331 16.76V9.08C93.0331 8.92 93.1131 8.84 93.2731 8.84H94.2331C94.3931 8.84 94.4998 8.86133 94.5531 8.904C94.6171 8.936 94.6705 8.99467 94.7131 9.08L97.5931 15.24H97.6731ZM109.239 15.24L112.119 9.08C112.161 8.99467 112.209 8.936 112.263 8.904C112.327 8.86133 112.439 8.84 112.599 8.84H113.559C113.719 8.84 113.799 8.92 113.799 9.08V16.76C113.799 16.92 113.719 17 113.559 17H112.679C112.519 17 112.439 16.92 112.439 16.76V11.48H112.359L109.879 16.76C109.836 16.8453 109.783 16.9093 109.719 16.952C109.665 16.984 109.559 17 109.399 17H108.999C108.839 17 108.727 16.984 108.663 16.952C108.609 16.9093 108.561 16.8453 108.519 16.76L106.039 11.48H105.959V16.76C105.959 16.92 105.879 17 105.719 17H104.839C104.679 17 104.599 16.92 104.599 16.76V9.08C104.599 8.92 104.679 8.84 104.839 8.84H105.799C105.959 8.84 106.065 8.86133 106.119 8.904C106.183 8.936 106.236 8.99467 106.279 9.08L109.159 15.24H109.239ZM121.684 12.2V11.16C121.684 10.7973 121.572 10.5093 121.348 10.296C121.135 10.072 120.847 9.96 120.484 9.96H118.564C118.202 9.96 117.908 10.072 117.684 10.296C117.471 10.5093 117.364 10.7973 117.364 11.16V12.2H121.684ZM117.364 13.48V14.68C117.364 15.0427 117.471 15.336 117.684 15.56C117.908 15.7733 118.202 15.88 118.564 15.88H120.484C120.847 15.88 121.135 15.7733 121.348 15.56C121.572 15.336 121.684 15.0427 121.684 14.68V14.6C121.684 14.44 121.764 14.36 121.924 14.36H122.804C122.964 14.36 123.044 14.44 123.044 14.6V14.68C123.044 15.48 122.826 16.0933 122.388 16.52C121.962 16.9467 121.327 17.16 120.484 17.16H118.564C117.722 17.16 117.082 16.9467 116.644 16.52C116.218 16.0933 116.004 15.48 116.004 14.68V11.16C116.004 10.36 116.218 9.74667 116.644 9.32C117.082 8.89333 117.722 8.68 118.564 8.68H120.484C121.327 8.68 121.962 8.89333 122.388 9.32C122.826 9.74667 123.044 10.36 123.044 11.16V13.24C123.044 13.4 122.964 13.48 122.804 13.48H117.364ZM129.646 15.72C130.008 15.72 130.296 15.6133 130.51 15.4C130.734 15.176 130.846 14.8827 130.846 14.52V11.16C130.846 10.7973 130.734 10.5093 130.51 10.296C130.296 10.072 130.008 9.96 129.646 9.96H128.286C127.806 9.96 127.406 10.12 127.086 10.44C126.766 10.76 126.606 11.16 126.606 11.64V15.72H129.646ZM126.606 17V19.8C126.606 19.96 126.526 20.04 126.366 20.04H125.486C125.326 20.04 125.246 19.96 125.246 19.8V9.08C125.246 8.92 125.326 8.84 125.486 8.84H126.366C126.526 8.84 126.606 8.92 126.606 9.08V9.64H126.686C126.771 9.45867 126.894 9.29867 127.054 9.16C127.192 9.04267 127.374 8.936 127.598 8.84C127.822 8.73333 128.104 8.68 128.446 8.68H129.646C130.488 8.68 131.123 8.89333 131.55 9.32C131.987 9.74667 132.206 10.36 132.206 11.16V14.52C132.206 15.32 131.987 15.9333 131.55 16.36C131.123 16.7867 130.488 17 129.646 17H126.606ZM135.605 11.8C135.605 12.1627 135.712 12.456 135.925 12.68C136.149 12.8933 136.442 13 136.805 13H139.525V9.08C139.525 8.92 139.605 8.84 139.765 8.84H140.645C140.805 8.84 140.885 8.92 140.885 9.08V16.76C140.885 16.92 140.805 17 140.645 17H139.765C139.605 17 139.525 16.92 139.525 16.76V14.28H136.805C135.962 14.28 135.322 14.0667 134.885 13.64C134.458 13.2133 134.245 12.6 134.245 11.8V9.08C134.245 8.92 134.325 8.84 134.485 8.84H135.365C135.525 8.84 135.605 8.92 135.605 9.08V11.8ZM148.772 12.2V11.16C148.772 10.7973 148.66 10.5093 148.436 10.296C148.223 10.072 147.935 9.96 147.572 9.96H145.652C145.289 9.96 144.996 10.072 144.772 10.296C144.559 10.5093 144.452 10.7973 144.452 11.16V12.2H148.772ZM144.452 13.48V14.68C144.452 15.0427 144.559 15.336 144.772 15.56C144.996 15.7733 145.289 15.88 145.652 15.88H147.572C147.935 15.88 148.223 15.7733 148.436 15.56C148.66 15.336 148.772 15.0427 148.772 14.68V14.6C148.772 14.44 148.852 14.36 149.012 14.36H149.892C150.052 14.36 150.132 14.44 150.132 14.6V14.68C150.132 15.48 149.913 16.0933 149.476 16.52C149.049 16.9467 148.415 17.16 147.572 17.16H145.652C144.809 17.16 144.169 16.9467 143.732 16.52C143.305 16.0933 143.092 15.48 143.092 14.68V11.16C143.092 10.36 143.305 9.74667 143.732 9.32C144.169 8.89333 144.809 8.68 145.652 8.68H147.572C148.415 8.68 149.049 8.89333 149.476 9.32C149.913 9.74667 150.132 10.36 150.132 11.16V13.24C150.132 13.4 150.052 13.48 149.892 13.48H144.452ZM153.533 14.68C153.533 15.0427 153.64 15.336 153.853 15.56C154.077 15.7733 154.37 15.88 154.733 15.88H156.573C156.936 15.88 157.224 15.7733 157.437 15.56C157.661 15.336 157.773 15.0427 157.773 14.68V14.28C157.773 14.12 157.853 14.04 158.013 14.04H158.893C159.053 14.04 159.133 14.12 159.133 14.28V14.68C159.133 15.48 158.914 16.0933 158.477 16.52C158.05 16.9467 157.416 17.16 156.573 17.16H154.733C153.89 17.16 153.25 16.9467 152.813 16.52C152.386 16.0933 152.173 15.48 152.173 14.68V11.16C152.173 10.36 152.386 9.74667 152.813 9.32C153.25 8.89333 153.89 8.68 154.733 8.68H156.573C157.416 8.68 158.05 8.89333 158.477 9.32C158.914 9.74667 159.133 10.36 159.133 11.16V11.56C159.133 11.72 159.053 11.8 158.893 11.8H158.013C157.853 11.8 157.773 11.72 157.773 11.56V11.16C157.773 10.7973 157.661 10.5093 157.437 10.296C157.224 10.072 156.936 9.96 156.573 9.96H154.733C154.37 9.96 154.077 10.072 153.853 10.296C153.64 10.5093 153.533 10.7973 153.533 11.16V14.68ZM164.54 13.32H162.54V16.76C162.54 16.92 162.46 17 162.3 17H161.42C161.26 17 161.18 16.92 161.18 16.76V9.08C161.18 8.92 161.26 8.84 161.42 8.84H162.3C162.46 8.84 162.54 8.92 162.54 9.08V12.04H164.54L166.14 9.08C166.183 8.99467 166.231 8.936 166.284 8.904C166.337 8.86133 166.423 8.84 166.54 8.84H167.5C167.681 8.84 167.735 8.92 167.66 9.08L165.66 12.68L167.9 16.76C167.975 16.92 167.921 17 167.74 17H166.78C166.663 17 166.577 16.984 166.524 16.952C166.471 16.9093 166.423 16.8453 166.38 16.76L164.54 13.32ZM174.783 11.16C174.783 10.7973 174.671 10.5093 174.447 10.296C174.234 10.072 173.946 9.96 173.583 9.96H171.583C171.22 9.96 170.927 10.072 170.703 10.296C170.49 10.5093 170.383 10.7973 170.383 11.16V14.68C170.383 15.0427 170.49 15.336 170.703 15.56C170.927 15.7733 171.22 15.88 171.583 15.88H173.583C173.946 15.88 174.234 15.7733 174.447 15.56C174.671 15.336 174.783 15.0427 174.783 14.68V11.16ZM176.143 14.68C176.143 15.48 175.924 16.0933 175.487 16.52C175.06 16.9467 174.426 17.16 173.583 17.16H171.583C170.74 17.16 170.1 16.9467 169.663 16.52C169.236 16.0933 169.023 15.48 169.023 14.68V11.16C169.023 10.36 169.236 9.74667 169.663 9.32C170.1 8.89333 170.74 8.68 171.583 8.68H173.583C174.426 8.68 175.06 8.89333 175.487 9.32C175.924 9.74667 176.143 10.36 176.143 11.16V14.68ZM183.863 12.2V11.16C183.863 10.7973 183.751 10.5093 183.527 10.296C183.313 10.072 183.025 9.96 182.663 9.96H180.743C180.38 9.96 180.087 10.072 179.863 10.296C179.649 10.5093 179.543 10.7973 179.543 11.16V12.2H183.863ZM179.543 13.48V14.68C179.543 15.0427 179.649 15.336 179.863 15.56C180.087 15.7733 180.38 15.88 180.743 15.88H182.663C183.025 15.88 183.313 15.7733 183.527 15.56C183.751 15.336 183.863 15.0427 183.863 14.68V14.6C183.863 14.44 183.943 14.36 184.103 14.36H184.983C185.143 14.36 185.223 14.44 185.223 14.6V14.68C185.223 15.48 185.004 16.0933 184.567 16.52C184.14 16.9467 183.505 17.16 182.663 17.16H180.743C179.9 17.16 179.26 16.9467 178.823 16.52C178.396 16.0933 178.183 15.48 178.183 14.68V11.16C178.183 10.36 178.396 9.74667 178.823 9.32C179.26 8.89333 179.9 8.68 180.743 8.68H182.663C183.505 8.68 184.14 8.89333 184.567 9.32C185.004 9.74667 185.223 10.36 185.223 11.16V13.24C185.223 13.4 185.143 13.48 184.983 13.48H179.543ZM196.107 17C195.947 17 195.867 16.92 195.867 16.76V10.12H191.787V16.76C191.787 16.92 191.707 17 191.547 17H190.667C190.507 17 190.427 16.92 190.427 16.76V9.08C190.427 8.92 190.507 8.84 190.667 8.84H196.987C197.147 8.84 197.227 8.92 197.227 9.08V16.76C197.227 16.92 197.147 17 196.987 17H196.107ZM203.986 15.72C204.349 15.72 204.637 15.6133 204.85 15.4C205.074 15.176 205.186 14.8827 205.186 14.52V11.16C205.186 10.7973 205.074 10.5093 204.85 10.296C204.637 10.072 204.349 9.96 203.986 9.96H202.626C202.146 9.96 201.746 10.12 201.426 10.44C201.106 10.76 200.946 11.16 200.946 11.64V15.72H203.986ZM200.946 17V19.8C200.946 19.96 200.866 20.04 200.706 20.04H199.826C199.666 20.04 199.586 19.96 199.586 19.8V9.08C199.586 8.92 199.666 8.84 199.826 8.84H200.706C200.866 8.84 200.946 8.92 200.946 9.08V9.64H201.026C201.112 9.45867 201.234 9.29867 201.394 9.16C201.533 9.04267 201.714 8.936 201.938 8.84C202.162 8.73333 202.445 8.68 202.786 8.68H203.986C204.829 8.68 205.464 8.89333 205.89 9.32C206.328 9.74667 206.546 10.36 206.546 11.16V14.52C206.546 15.32 206.328 15.9333 205.89 16.36C205.464 16.7867 204.829 17 203.986 17H200.946ZM214.266 12.2V11.16C214.266 10.7973 214.154 10.5093 213.93 10.296C213.716 10.072 213.428 9.96 213.066 9.96H211.146C210.783 9.96 210.49 10.072 210.266 10.296C210.052 10.5093 209.946 10.7973 209.946 11.16V12.2H214.266ZM209.946 13.48V14.68C209.946 15.0427 210.052 15.336 210.266 15.56C210.49 15.7733 210.783 15.88 211.146 15.88H213.066C213.428 15.88 213.716 15.7733 213.93 15.56C214.154 15.336 214.266 15.0427 214.266 14.68V14.6C214.266 14.44 214.346 14.36 214.506 14.36H215.386C215.546 14.36 215.626 14.44 215.626 14.6V14.68C215.626 15.48 215.407 16.0933 214.97 16.52C214.543 16.9467 213.908 17.16 213.066 17.16H211.146C210.303 17.16 209.663 16.9467 209.226 16.52C208.799 16.0933 208.586 15.48 208.586 14.68V11.16C208.586 10.36 208.799 9.74667 209.226 9.32C209.663 8.89333 210.303 8.68 211.146 8.68H213.066C213.908 8.68 214.543 8.89333 214.97 9.32C215.407 9.74667 215.626 10.36 215.626 11.16V13.24C215.626 13.4 215.546 13.48 215.386 13.48H209.946ZM222.627 10.12H219.987L218.867 15.72H222.627V10.12ZM223.987 15.72H224.787C224.947 15.72 225.027 15.8 225.027 15.96V18.52C225.027 18.68 224.947 18.76 224.787 18.76H223.907C223.747 18.76 223.667 18.68 223.667 18.52V17H217.907V18.52C217.907 18.68 217.827 18.76 217.667 18.76H216.787C216.627 18.76 216.547 18.68 216.547 18.52V15.96C216.547 15.8 216.627 15.72 216.787 15.72H217.507L218.867 9.08C218.899 8.92 219.032 8.84 219.267 8.84H223.747C223.907 8.84 223.987 8.92 223.987 9.08V15.72ZM228.26 14.84C228.1 15.64 227.828 16.2267 227.444 16.6C227.06 16.9733 226.505 17.16 225.78 17.16H225.54C225.38 17.16 225.3 17.08 225.3 16.92V16.12C225.3 15.96 225.38 15.88 225.54 15.88H225.78C226.057 15.88 226.292 15.7893 226.484 15.608C226.687 15.4267 226.825 15.1707 226.9 14.84L228.1 9.08C228.132 8.92 228.265 8.84 228.5 8.84H232.98C233.14 8.84 233.22 8.92 233.22 9.08V16.76C233.22 16.92 233.14 17 232.98 17H232.1C231.94 17 231.86 16.92 231.86 16.76V10.12H229.22L228.26 14.84ZM241.183 11.16C241.183 10.7973 241.071 10.5093 240.847 10.296C240.634 10.072 240.346 9.96 239.983 9.96H237.983C237.62 9.96 237.327 10.072 237.103 10.296C236.89 10.5093 236.783 10.7973 236.783 11.16V14.68C236.783 15.0427 236.89 15.336 237.103 15.56C237.327 15.7733 237.62 15.88 237.983 15.88H239.983C240.346 15.88 240.634 15.7733 240.847 15.56C241.071 15.336 241.183 15.0427 241.183 14.68V11.16ZM242.543 14.68C242.543 15.48 242.324 16.0933 241.887 16.52C241.46 16.9467 240.826 17.16 239.983 17.16H237.983C237.14 17.16 236.5 16.9467 236.063 16.52C235.636 16.0933 235.423 15.48 235.423 14.68V11.16C235.423 10.36 235.636 9.74667 236.063 9.32C236.5 8.89333 237.14 8.68 237.983 8.68H239.983C240.826 8.68 241.46 8.89333 241.887 9.32C242.324 9.74667 242.543 10.36 242.543 11.16V14.68ZM251.574 13.32H250.054V16.76C250.054 16.92 249.974 17 249.814 17H248.934C248.774 17 248.694 16.92 248.694 16.76V13.32H247.174L245.334 16.76C245.292 16.8453 245.244 16.9093 245.19 16.952C245.137 16.984 245.052 17 244.934 17H243.974C243.889 17 243.83 16.984 243.798 16.952C243.766 16.9093 243.772 16.8453 243.814 16.76L246.054 12.68L244.054 9.08C244.012 8.99467 244.006 8.936 244.038 8.904C244.07 8.86133 244.129 8.84 244.214 8.84H245.174C245.292 8.84 245.377 8.86133 245.43 8.904C245.484 8.936 245.532 8.99467 245.574 9.08L247.174 12.04H248.694V9.08C248.694 8.92 248.774 8.84 248.934 8.84H249.814C249.974 8.84 250.054 8.92 250.054 9.08V12.04H251.574L253.174 9.08C253.217 8.99467 253.265 8.936 253.318 8.904C253.372 8.86133 253.457 8.84 253.574 8.84H254.534C254.716 8.84 254.769 8.92 254.694 9.08L252.694 12.68L254.934 16.76C255.009 16.92 254.956 17 254.774 17H253.814C253.697 17 253.612 16.984 253.558 16.952C253.505 16.9093 253.457 16.8453 253.414 16.76L251.574 13.32ZM261.734 12.2V11.16C261.734 10.7973 261.622 10.5093 261.398 10.296C261.185 10.072 260.897 9.96 260.534 9.96H258.614C258.252 9.96 257.958 10.072 257.734 10.296C257.521 10.5093 257.414 10.7973 257.414 11.16V12.2H261.734ZM257.414 13.48V14.68C257.414 15.0427 257.521 15.336 257.734 15.56C257.958 15.7733 258.252 15.88 258.614 15.88H260.534C260.897 15.88 261.185 15.7733 261.398 15.56C261.622 15.336 261.734 15.0427 261.734 14.68V14.6C261.734 14.44 261.814 14.36 261.974 14.36H262.854C263.014 14.36 263.094 14.44 263.094 14.6V14.68C263.094 15.48 262.876 16.0933 262.438 16.52C262.012 16.9467 261.377 17.16 260.534 17.16H258.614C257.772 17.16 257.132 16.9467 256.694 16.52C256.268 16.0933 256.054 15.48 256.054 14.68V11.16C256.054 10.36 256.268 9.74667 256.694 9.32C257.132 8.89333 257.772 8.68 258.614 8.68H260.534C261.377 8.68 262.012 8.89333 262.438 9.32C262.876 9.74667 263.094 10.36 263.094 11.16V13.24C263.094 13.4 263.014 13.48 262.854 13.48H257.414ZM266.656 13.48V16.76C266.656 16.92 266.576 17 266.416 17H265.536C265.376 17 265.296 16.92 265.296 16.76V9.08C265.296 8.92 265.376 8.84 265.536 8.84H266.416C266.576 8.84 266.656 8.92 266.656 9.08V12.28H270.736V9.08C270.736 8.92 270.816 8.84 270.976 8.84H271.856C272.016 8.84 272.096 8.92 272.096 9.08V16.76C272.096 16.92 272.016 17 271.856 17H270.976C270.816 17 270.736 16.92 270.736 16.76V13.48H266.656ZM281.175 8.84C281.335 8.84 281.415 8.92 281.415 9.08V16.76C281.415 16.92 281.335 17 281.175 17H280.295C280.135 17 280.055 16.92 280.055 16.76V10.92H279.975L276.135 16.76C276.082 16.8453 276.028 16.9093 275.975 16.952C275.922 16.984 275.815 17 275.655 17H274.695C274.535 17 274.455 16.92 274.455 16.76V9.08C274.455 8.92 274.535 8.84 274.695 8.84H275.575C275.735 8.84 275.815 8.92 275.815 9.08V14.92H275.895L279.735 9.08C279.788 8.99467 279.842 8.936 279.895 8.904C279.948 8.86133 280.055 8.84 280.215 8.84H281.175ZM289.291 12.2V11.16C289.291 10.7973 289.179 10.5093 288.955 10.296C288.741 10.072 288.453 9.96 288.091 9.96H286.171C285.808 9.96 285.515 10.072 285.291 10.296C285.077 10.5093 284.971 10.7973 284.971 11.16V12.2H289.291ZM284.971 13.48V14.68C284.971 15.0427 285.077 15.336 285.291 15.56C285.515 15.7733 285.808 15.88 286.171 15.88H288.091C288.453 15.88 288.741 15.7733 288.955 15.56C289.179 15.336 289.291 15.0427 289.291 14.68V14.6C289.291 14.44 289.371 14.36 289.531 14.36H290.411C290.571 14.36 290.651 14.44 290.651 14.6V14.68C290.651 15.48 290.432 16.0933 289.995 16.52C289.568 16.9467 288.933 17.16 288.091 17.16H286.171C285.328 17.16 284.688 16.9467 284.251 16.52C283.824 16.0933 283.611 15.48 283.611 14.68V11.16C283.611 10.36 283.824 9.74667 284.251 9.32C284.688 8.89333 285.328 8.68 286.171 8.68H288.091C288.933 8.68 289.568 8.89333 289.995 9.32C290.432 9.74667 290.651 10.36 290.651 11.16V13.24C290.651 13.4 290.571 13.48 290.411 13.48H284.971Z" fill="#1B1C21"/>
<path fill-rule="evenodd" clip-rule="evenodd" d="M301.294 15.2359C300.908 15.6255 300.908 16.2529 301.294 16.6426L301.34 16.6895C301.732 17.0851 302.371 17.0851 302.762 16.6895L306.706 12.7034C307.091 12.3138 307.091 11.6864 306.706 11.2967L302.762 7.3106C302.371 6.91506 301.732 6.91506 301.34 7.3106L301.294 7.35757C300.908 7.74722 300.908 8.37461 301.294 8.76425L304.495 12.0001L301.294 15.2359Z" fill="#FF3E79"/>
</svg>
